<?xml version="1.0" encoding="UTF-8"?>
<svg width="132px" height="27px" viewBox="0 0 132 27" version="1.1" xmlns="http://www.w3.org/2000/svg" xmlns:xlink="http://www.w3.org/1999/xlink">
    <!-- Generator: sketchtool 63.1 (101010) - https://sketch.com -->
    <title>5C1FAEEC-C7B7-484A-9A75-555718810BD7</title>
    <desc>Created with sketchtool.</desc>
    <g id="desktop" stroke="none" stroke-width="1" fill="none" fill-rule="evenodd">
        <g id="D01_home" transform="translate(-42.000000, -26.000000)" fill="#FFFFFF" fill-rule="nonzero">
            <g id="header">
                <path d="M49.0361512,51.5466412 L48.7114057,36.9691793 L48.855737,36.9691793 L51.778446,51.5466412 L56.757876,51.5466412 L59.9331648,36.9691793 L60.0774961,36.9691793 L59.7166678,51.5466412 L67.366227,51.5466412 L67.366227,26 L57.4434497,26 L54.484658,39.3506458 L54.3403267,39.3506458 L51.3454521,26 L42,26 L42,51.5466412 L49.0361512,51.5466412 Z M77.0274038,51.5466412 L76.7026584,36.9691793 L76.8469897,36.9691793 L79.7696986,51.5466412 L84.7491287,51.5466412 L87.9244174,36.9691793 L88.0687487,36.9691793 L87.7079205,51.5466412 L95.3574797,51.5466412 L95.3574797,26 L85.4347024,26 L82.4759106,39.3506458 L82.3315793,39.3506458 L79.3367047,26 L69.9912526,26 L69.9912526,51.5466412 L77.0274038,51.5466412 Z M103.79184,51.5466412 L104.477414,48.0105242 L108.879519,48.0105242 L109.565093,51.5466412 L117.755894,51.5466412 L111.693979,26 L101.987699,26 L95.961867,51.5466412 L103.79184,51.5466412 Z M107.941365,41.9486093 L105.343402,41.9486093 L106.606301,33.6495592 L106.750632,33.6495592 L107.941365,41.9486093 Z M122.798469,52.1600492 C123.568236,52.1600492 124.307934,52.0397731 125.017563,51.7992209 C125.727192,51.5586688 126.358641,51.1858129 126.911911,50.6806533 C127.465181,50.1754937 127.904189,49.5440443 128.228935,48.7863049 C128.55368,48.0285656 128.716053,47.1445363 128.716053,46.1342172 C128.716053,45.2922846 128.589763,44.5646142 128.337183,43.9512062 C128.084603,43.3377981 127.74783,42.8145971 127.326864,42.3816032 C126.905898,41.9486093 126.436821,41.5937948 125.919634,41.3171598 C125.402447,41.0405248 124.879246,40.8059865 124.350031,40.6135447 C123.411877,40.2767717 122.726304,39.9460124 122.29331,39.621267 C121.860316,39.2965216 121.643819,38.7733206 121.643819,38.051664 C121.643819,37.3540627 121.848288,36.7947789 122.257227,36.3738126 C122.666166,35.9528463 123.171325,35.7423632 123.772706,35.7423632 C124.422196,35.7423632 124.999522,35.8866945 125.504681,36.1753571 C126.009841,36.4640197 126.430807,36.8368756 126.76758,37.2939247 L126.76758,37.2939247 L128.93255,34.6598784 C128.307114,34.0344427 127.549375,33.5232693 126.659332,33.1263582 C125.769289,32.7294471 124.770997,32.5309916 123.664457,32.5309916 C122.918745,32.5309916 122.197089,32.6572815 121.499487,32.9098613 C120.801886,33.1624411 120.188478,33.5352969 119.659263,34.0284289 C119.130049,34.5215609 118.703068,35.1169275 118.378323,35.8145288 C118.053578,36.5121301 117.891205,37.3059523 117.891205,38.1959954 C117.891205,39.037928 118.005467,39.7535707 118.233992,40.3429235 C118.462516,40.9322764 118.76922,41.4314221 119.154104,41.8403608 C119.538987,42.2492995 119.959954,42.574045 120.417003,42.8145971 C120.874052,43.0551493 121.343129,43.2596187 121.824233,43.4280052 C122.762386,43.7647782 123.514112,44.1256065 124.07941,44.51049 C124.644707,44.8953735 124.927356,45.5208091 124.927356,46.386797 C124.927356,47.1325087 124.734914,47.7338892 124.350031,48.1909383 C123.965147,48.6479874 123.435932,48.876512 122.762386,48.876512 C121.992619,48.876512 121.319073,48.6960979 120.741748,48.3352696 C120.164423,47.9744413 119.659263,47.5414474 119.226269,47.0362878 L119.226269,47.0362878 L117.025217,49.6342513 C117.722818,50.4040183 118.570765,51.0174264 119.569056,51.4744755 C120.567348,51.9315246 121.643819,52.1600492 122.798469,52.1600492 Z M135.887515,52.0157179 C136.368619,52.0157179 136.849723,51.9676075 137.330828,51.8713866 C137.811932,51.7751657 138.196815,51.6548896 138.485478,51.5105583 L138.485478,51.5105583 L138.413312,48.3352696 C138.244926,48.4314905 138.04647,48.5036561 137.817946,48.5517666 C137.589421,48.599877 137.36691,48.6239322 137.150413,48.6239322 C136.524978,48.6239322 136.061915,48.3954076 135.761225,47.9383585 C135.460534,47.4813094 135.310189,46.7476252 135.310189,45.7373061 L135.310189,45.7373061 L135.310189,36.2836055 L138.521561,36.2836055 L138.521561,33.1443996 L135.310189,33.1443996 L135.310189,28.4536322 L131.48541,28.4536322 L131.48541,33.1443996 L129.176109,33.1443996 L129.176109,36.2836055 L131.48541,36.2836055 L131.48541,46.6393768 C131.48541,48.3713524 131.828197,49.7004032 132.51377,50.6265291 C133.199344,51.552655 134.323925,52.0157179 135.887515,52.0157179 Z M143.708467,52.0157179 C144.863118,52.0157179 145.789243,51.7330691 146.486845,51.1677715 C147.184446,50.6024739 147.66555,49.8146655 147.930158,48.8043463 L147.930158,48.8043463 L148.002324,48.8043463 L148.002324,51.5466412 L151.394109,51.5466412 L151.394109,40.6135447 C151.394109,39.3386182 151.291875,38.1959954 151.087405,37.1856762 C150.882936,36.1753571 150.540149,35.3274106 150.059045,34.6418369 C149.57794,33.9562632 148.946491,33.4330623 148.164696,33.072234 C147.382902,32.7114057 146.426707,32.5309916 145.296112,32.5309916 C144.285792,32.5309916 143.263446,32.76553 142.229071,33.2346067 C141.194697,33.7036835 140.340737,34.3591881 139.667191,35.2011208 L139.667191,35.2011208 L141.615663,37.7630014 C142.024602,37.2337866 142.51172,36.8068065 143.077018,36.4820611 C143.642315,36.1573157 144.273765,35.9949429 144.971366,35.9949429 C145.789243,35.9949429 146.444748,36.2655641 146.93788,36.8068065 C147.431012,37.3480489 147.677578,38.2320782 147.677578,39.4588943 L147.677578,39.4588943 L147.677578,40.0362195 L146.667259,40.0362195 C145.801271,40.0362195 144.917242,40.1264266 144.015171,40.3068407 C143.113101,40.4872548 142.295223,40.8180141 141.561539,41.2991184 C140.827855,41.7802228 140.226474,42.4357275 139.757398,43.2656325 C139.288321,44.0955375 139.053783,45.1599809 139.053783,46.4589626 C139.053783,47.4692818 139.198114,48.3292558 139.486776,49.0388847 C139.775439,49.7485136 140.142281,50.3258389 140.587303,50.7708604 C141.032324,51.2158819 141.53147,51.5346135 142.08474,51.7270553 C142.63801,51.919497 143.179252,52.0157179 143.708467,52.0157179 Z M144.790952,48.9486776 C144.237682,48.9486776 143.750564,48.7201531 143.329597,48.2631039 C142.908631,47.8060548 142.698148,47.0964259 142.698148,46.1342172 C142.698148,45.4847263 142.806397,44.9494977 143.022893,44.5285314 C143.23939,44.1075651 143.528053,43.7768058 143.888881,43.5362537 C144.24971,43.2957015 144.664662,43.1333288 145.133739,43.0491355 C145.602816,42.9649423 146.089934,42.9228456 146.595093,42.9228456 L146.595093,42.9228456 L147.785827,42.9228456 L147.785827,43.9692476 C147.785827,44.5225176 147.731702,45.093829 147.623454,45.6831818 C147.515205,46.2725347 147.346819,46.8077633 147.118294,47.2888676 C146.88977,47.769972 146.583066,48.1668831 146.198182,48.4796009 C145.813299,48.7923187 145.344222,48.9486776 144.790952,48.9486776 Z M159.57589,52.0157179 C160.056994,52.0157179 160.538099,51.9676075 161.019203,51.8713866 C161.500308,51.7751657 161.885191,51.6548896 162.173854,51.5105583 L162.173854,51.5105583 L162.101688,48.3352696 C161.933301,48.4314905 161.734846,48.5036561 161.506321,48.5517666 C161.277797,48.599877 161.055286,48.6239322 160.838789,48.6239322 C160.213353,48.6239322 159.75029,48.3954076 159.4496,47.9383585 C159.14891,47.4813094 158.998565,46.7476252 158.998565,45.7373061 L158.998565,45.7373061 L158.998565,36.2836055 L162.209936,36.2836055 L162.209936,33.1443996 L158.998565,33.1443996 L158.998565,28.4536322 L155.173785,28.4536322 L155.173785,33.1443996 L152.864484,33.1443996 L152.864484,36.2836055 L155.173785,36.2836055 L155.173785,46.6393768 C155.173785,48.3713524 155.516572,49.7004032 156.202146,50.6265291 C156.88772,51.552655 158.012301,52.0157179 159.57589,52.0157179 Z M167.865919,52.1600492 C168.635686,52.1600492 169.375384,52.0397731 170.085013,51.7992209 C170.794642,51.5586688 171.426092,51.1858129 171.979362,50.6806533 C172.532632,50.1754937 172.971639,49.5440443 173.296385,48.7863049 C173.62113,48.0285656 173.783503,47.1445363 173.783503,46.1342172 C173.783503,45.2922846 173.657213,44.5646142 173.404633,43.9512062 C173.152054,43.3377981 172.815281,42.8145971 172.394314,42.3816032 C171.973348,41.9486093 171.504271,41.5937948 170.987084,41.3171598 C170.469897,41.0405248 169.946696,40.8059865 169.417481,40.6135447 C168.479328,40.2767717 167.793754,39.9460124 167.36076,39.621267 C166.927766,39.2965216 166.711269,38.7733206 166.711269,38.051664 C166.711269,37.3540627 166.915738,36.7947789 167.324677,36.3738126 C167.733616,35.9528463 168.238775,35.7423632 168.840156,35.7423632 C169.489647,35.7423632 170.066972,35.8866945 170.572131,36.1753571 C171.077291,36.4640197 171.498257,36.8368756 171.83503,37.2939247 L171.83503,37.2939247 L174,34.6598784 C173.374564,34.0344427 172.616825,33.5232693 171.726782,33.1263582 C170.836739,32.7294471 169.838447,32.5309916 168.731907,32.5309916 C167.986196,32.5309916 167.264539,32.6572815 166.566938,32.9098613 C165.869336,33.1624411 165.255928,33.5352969 164.726714,34.0284289 C164.197499,34.5215609 163.770519,35.1169275 163.445773,35.8145288 C163.121028,36.5121301 162.958655,37.3059523 162.958655,38.1959954 C162.958655,39.037928 163.072917,39.7535707 163.301442,40.3429235 C163.529967,40.9322764 163.836671,41.4314221 164.221554,41.8403608 C164.606438,42.2492995 165.027404,42.574045 165.484453,42.8145971 C165.941502,43.0551493 166.410579,43.2596187 166.891683,43.4280052 C167.829837,43.7647782 168.581562,44.1256065 169.14686,44.51049 C169.712157,44.8953735 169.994806,45.5208091 169.994806,46.386797 C169.994806,47.1325087 169.802365,47.7338892 169.417481,48.1909383 C169.032598,48.6479874 168.503383,48.876512 167.829837,48.876512 C167.06007,48.876512 166.386524,48.6960979 165.809198,48.3352696 C165.231873,47.9744413 164.726714,47.5414474 164.29372,47.0362878 L164.29372,47.0362878 L162.092667,49.6342513 C162.790269,50.4040183 163.638215,51.0174264 164.636507,51.4744755 C165.634798,51.9315246 166.711269,52.1600492 167.865919,52.1600492 Z" id="MMAstats"></path>
            </g>
        </g>
    </g>
</svg>